<svg class="svg-icon" style="width: 1em; height: 1em;vertical-align: middle;fill: currentColor;overflow: hidden;" viewBox="0 0 1024 1024" version="1.1" xmlns="http://www.w3.org/2000/svg"><path d="M307.4 244.1c-1.1 0-2.3-0.2-3.4-0.8-4-1.9-5.7-6.6-3.9-10.6 2.7-5.7 5.5-11.2 8.6-16.6 2.2-3.8 7.1-5.2 10.9-3 3.8 2.2 5.2 7.1 3 10.9-2.9 5.1-5.5 10.2-8 15.6-1.3 2.8-4.2 4.5-7.2 4.5z" fill="#763117" /><path d="M584.8 912.1H451.9c-32.3 0-84.9-16.1-126.8-61.6-47.3-51.3-69.3-166.6-69.3-362.8 0-91.1 11.3-167.9 33.5-228.5 1.5-4.1 6.1-6.3 10.3-4.8 4.1 1.5 6.3 6.1 4.8 10.3-26.9 73.2-32.5 161.6-32.5 222.9 0 103.8 6.2 183.5 18.8 243.6 10.7 50.8 25.8 86.2 46.2 108.4 38.4 41.6 86 56.4 115 56.4h132.9c30.3 0 83.7-34.4 102-65.7 24.1-41.3 56.1-121.8 56.1-342.8 0-106.5-19.5-178.3-35.9-219.8-17.7-44.8-35.6-64.8-35.8-65-0.1-0.1-13.4-14.6-31.7-28.7-23.3-18.1-44.1-27.7-60-27.7l-27.4 0.3c-12.7 0.1-25.4-1.2-38-4l-2.3-0.5c-21.8-4.8-43.9-5.5-65.6-2.3l-21.9 3.2h-0.6c-22.1 0-44.2 15.8-58.9 29.1-16.4 14.8-27.2 29.8-27.3 29.9-2.6 3.6-7.6 4.4-11.2 1.8-3.6-2.6-4.4-7.6-1.8-11.2 1.9-2.7 47.6-65.1 98.6-65.6l20.7-3c23.6-3.5 47.7-2.7 71.5 2.5l2.3 0.5c11.3 2.5 22.9 3.7 34.4 3.6l27.5-0.3c46.6 0 101.3 59.1 103.6 61.6 0.8 0.9 19.7 21.7 38.4 68.8 17.1 42.9 37.5 117.1 37.5 226.8 0 224.9-33.3 307.9-58.3 350.8-21.4 36.6-79.8 73.8-115.9 73.8z" fill="#763117" /><path d="M569.9 868.1H457.8c-27.4 0-69.2-15.4-102.1-54S299 688 299 486.9s56.7-265.7 56.7-265.7 38-57 78.3-57l17.9-2.9c19.3-3.1 38.9-2.3 57.9 2.2l1.8 0.4c10 2.4 20.3 3.6 30.5 3.4l23.2-0.3c36.7 0 82.4 54 82.4 54S710 294.7 710 486.9c0 215.4-31.1 285.6-48.2 317.4-17.2 31.9-64.5 63.8-91.9 63.8z" fill="#F15A24" /><path d="M490.4 215.4c-44.5 0-83.1-26.2-84.8-27.3-3.6-2.5-4.6-7.5-2.1-11.1 2.5-3.6 7.5-4.6 11.1-2.1 0.5 0.3 37.6 25.3 77.7 24.5 40.5-0.8 80.4-26.6 80.8-26.9 3.7-2.4 8.7-1.4 11.1 2.3 2.4 3.7 1.4 8.6-2.3 11.1-1.8 1.2-44 28.6-89.2 29.5h-2.3z" fill="#763117" /><path d="M485.2 172.9c-4.3 0-7.9-3.4-8-7.7-0.1-4.2-0.8-41.9 16.3-60.4 3-3.2 8.1-3.4 11.3-0.4 3.2 3 3.4 8.1 0.4 11.3-10.8 11.6-12.4 39.3-12.1 49 0.1 4.4-3.3 8.1-7.7 8.2h-0.2zM379.1 794.1h-0.1c-4.4-0.1-7.9-3.7-7.9-8.1 0-0.2 0.3-16.6-0.5-43.9-0.4-14.6 3.4-26.9 6.7-37.8 3.4-11 6.3-20.4 4.2-29.5-4.3-18.7-19-33.7-19.2-33.8-3.1-3.1-3.1-8.2 0-11.3 3.1-3.1 8.2-3.1 11.3 0 0.7 0.7 18.1 18.3 23.4 41.6 3.1 13.3-0.8 25.7-4.5 37.8-3.1 10.2-6.4 20.7-6 32.7 0.8 27.8 0.5 44 0.5 44.7 0 4.1-3.5 7.6-7.9 7.6zM374.9 579.9c-2.5 0-6.7-1.1-8.9-7.6-0.9-2.7-0.3-5.6 1.4-7.6-0.2-3.5-0.7-9.2-1.8-18.6-4.3-37.2-2.5-84.6 0-126 2-34.6-4.7-50.1-4.8-50.3l-0.9-2 0.3-2.1c0-0.2 1.6-16.1 0-38-1-14 2.7-23.5 6.1-29 3.8-6.2 7.9-9.1 8.7-9.6l8.6 13.5 0.1-0.1c-0.4 0.3-8.9 6.5-7.6 24 1.4 19.1 0.6 33.7 0.2 38.8 2.1 5.9 7.2 23.8 5.4 55.7-2.4 40.7-4.2 87.2 0 123.2 1.2 10 1.8 17.5 2 22.2 0.1 4.1 0.4 11.7-6.8 13.3-0.6 0.1-1.2 0.2-2 0.2zM510.3 502.9h-0.8c-4.4-0.4-7.6-4.4-7.2-8.8 0.3-3.3 0.6-7.4 1-12.1 1-13.8 2.4-32.8 6.2-56.2 1.1-6.9 2.2-12.5 3-17 2.9-16 3.6-19.8 0.3-32.1-4.9-18-3.8-23.8-1.1-37.8 0.3-1.6 0.6-3.3 1-5.2 0.8-4.3 5-7.2 9.3-6.4 4.3 0.8 7.2 5 6.4 9.3-0.3 1.9-0.7 3.6-1 5.3-2.5 13.1-3.1 16.2 0.8 30.6 4.3 15.8 3.1 22.2 0 39.2-0.9 4.7-1.8 10-2.9 16.7-3.7 22.7-5.1 41.3-6 54.8-0.3 4.8-0.7 9-1 12.5-0.4 4.1-3.9 7.2-8 7.2z" fill="#763117" /><path d="M656.3 384.3c-4 0-7.4-3-7.9-7l-0.1-0.9c-3.5-28.4-11.9-55.7-25.1-81.1-2-3.9-0.5-8.8 3.4-10.8s8.8-0.5 10.8 3.4c14 27.1 23 56.2 26.7 86.5l0.1 0.9c0.5 4.4-2.6 8.4-7 8.9-0.2 0.1-0.5 0.1-0.9 0.1zM662.4 416.7c-3.8 0-7.2-2.7-7.9-6.6l-1.2-6.7c-0.8-4.4 2.1-8.5 6.5-9.3s8.5 2.1 9.3 6.5l1.2 6.7c0.8 4.4-2.1 8.5-6.5 9.3-0.5 0-0.9 0.1-1.4 0.1z" fill="#FFFFFF" /></svg>